# xmcd
#
# Track frame offsets:
#	150
#	24340
#	43095
#	72668
#	99468
#	115003
#	131758
#	150241
#	166516
#	198446
#	215728
#	229033
#	241985
#	256945
#	272540
#
# Disc length: 3803
#
# Revision: 2
# Processed by: cddbd v1.5.1PL0 Copyright (c) Steve Scherf et al.
# Submitted via: CDmax 2.0
# Normalized: r1:TDELIM( - )
#
DISCID=c50ed90f
DTITLE=Various Female Blues Artists - The Blues Girls
DYEAR=2003
DGENRE=Blues
TTITLE0=Lani Groves - It's a man's, man's world
TTITLE1=Lady Bianca - Blues Fonk
TTITLE2=Lady Bianca - Can You Slip Away Again Tonight
TTITLE3=Lady Bianca - Easy Lovin'
TTITLE4=Lady Bianca - Lookin' At My Man
TTITLE5=Shemekia Copeland - Big Lovin' Woman
TTITLE6=Shemekia Copeland - Ghetto Child
TTITLE7=Shemekia Copeland - Has Anybody Seen My Man
TTITLE8=Shemekia Copeland - It Don't Hurt No More
TTITLE9=Shemekia Copeland - My Kind of Guy
TTITLE10=Brenda Boykin and Johnny Nocturne Band - No! I Ain't Gonna Let You Go
TTITLE11=Deanna Bogart - My Blue Mood
TTITLE12=Irma Thomas - I'll Take Care Of You
TTITLE13=Marcia Ball - Blue House
TTITLE14=Toni Lynn Washington - Don't Let It End
EXTD=
EXTT0=
EXTT1=
EXTT2=
EXTT3=
EXTT4=
EXTT5=
EXTT6=
EXTT7=
EXTT8=
EXTT9=
EXTT10=
EXTT11=
EXTT12=
EXTT13=
EXTT14=
PLAYORDER=
